# xmcd
#
# Track frame offsets:
#	150
#	18332
#	34860
#	55407
#	69071
#
# Disc length: 1125 seconds
#
# Revision: 0
# Processed by: cddbd v1.5.2PL0 Copyright (c) Steve Scherf et al.
# Submitted via: EasyCDDAExtractor 16.0.6.1
#
DISCID=37046305
DTITLE=Κόκοτας Δημήτρης - Χρυσό μικρόφωνο 011-Κόκοτας Δ.
DYEAR=2010
DGENRE=Λαϊκή
TTITLE0=Τσιγάρο [Ανδρέας Κομπόσης]
TTITLE1=Αν μετρηθεί [Ανδρέας Κομπόσης]
TTITLE2=Απρόσμενη αγάπη μου [Ανδρέας Κομπόσης]
TTITLE3=Χαμογέλασε, μωρό μου [Ανδρέας Κομπόσης]
TTITLE4=Η τιμή της συγγνώμης [Ανδρέας Κομπόσης]
EXTD=
EXTT0=
EXTT1=
EXTT2=
EXTT3=
EXTT4=
PLAYORDER=
